<svg width="120" height="120" viewBox="0 0 120 120" fill="none" xmlns="http://www.w3.org/2000/svg">
<rect width="120" height="120" rx="6" fill="black"/>
<path d="M68.9 41.1C68.9 42.3667 68.2333 43.4667 66.9 44.4C65.5667 45.3 64.05 45.75 62.35 45.75C60.65 45.75 59.3 45.4167 58.3 44.75C57.3333 44.0833 56.85 43.1833 56.85 42.05C56.85 40.5167 57.5667 39.3167 59 38.45C60.4333 37.5833 61.95 37.15 63.55 37.15C65.15 37.15 66.4333 37.4833 67.4 38.15C68.4 38.8167 68.9 39.8 68.9 41.1ZM59.15 80.25C57.0833 80.25 55.5833 79.7333 54.65 78.7C53.7167 77.6667 53.25 76.1 53.25 74C53.25 71.8667 54.3167 66.1833 56.45 56.95L53.65 52.75C57.8167 50.25 61.1 49 63.5 49C64.8667 49 65.8333 49.3 66.4 49.9C66.9667 50.4667 67.25 51.4 67.25 52.7C67.25 53.2 66.6333 56.1333 65.4 61.5C64.1667 66.8667 63.55 70.7 63.55 73C63.55 75.3 64.0667 76.9 65.1 77.8C63.2333 79.4333 61.25 80.25 59.15 80.25Z" fill="white"/>
</svg>
